<?xml version="1.0" encoding="UTF-8"?>
<svg width="256px" height="153px" viewBox="0 0 256 153" version="1.1" xmlns="http://www.w3.org/2000/svg">
    <title>AWS</title>
    <g>
        <path d="M72.392,55.438 C72.392,58.657 72.746,61.203 73.366,62.981 C74.075,64.759 75.038,66.625 76.266,68.579 C76.798,69.287 77.064,70.017 77.064,70.725 C77.064,71.699 76.444,72.673 75.126,73.647 L69.669,77.221 C68.883,77.752 68.085,78.018 67.377,78.018 C66.403,78.018 65.429,77.486 64.455,76.512 C63.215,75.184 62.152,73.744 61.267,72.304 C60.381,70.814 59.496,69.109 58.522,67.066 C51.931,73.744 43.897,77.133 34.508,77.133 C27.917,77.133 22.725,75.267 18.886,71.61 C15.047,67.953 13.093,63.069 13.093,56.945 C13.093,50.467 15.489,45.186 20.281,41.173 C25.073,37.16 31.554,35.118 39.812,35.118 C42.766,35.118 45.808,35.383 49.026,35.826 C52.245,36.269 55.552,36.977 58.947,37.773 L58.947,32.669 C58.947,26.812 57.796,22.711 55.464,20.401 C53.043,18.091 48.671,16.936 42.324,16.936 C39.37,16.936 36.328,17.291 33.198,18.091 C30.068,18.891 27.026,19.864 24.072,20.926 C22.725,21.458 21.751,21.724 21.131,21.901 C20.511,22.078 20.069,22.167 19.715,22.167 C18.119,22.167 17.321,21.014 17.321,18.623 L17.321,14.715 C17.321,12.936 17.498,11.697 17.941,11.077 C18.384,10.457 19.27,9.837 20.511,9.217 C23.465,7.794 27.026,6.548 31.2,5.486 C35.374,4.335 39.812,3.804 44.427,3.804 C54.903,3.804 62.595,6.114 67.466,10.822 C72.248,15.531 74.694,22.523 74.694,31.872 L74.694,55.438 L72.392,55.438 Z M37.833,64.67 C40.699,64.67 43.653,64.138 46.783,63.075 C49.913,62.013 52.69,60.234 55.111,57.835 C56.547,56.399 57.62,54.798 58.152,52.931 C58.683,51.065 59.038,48.762 59.038,46.098 L59.038,48.762 C56.37,47.877 53.614,47.168 50.799,46.63 C47.984,46.098 45.277,45.832 42.677,45.832 C37.125,45.832 33.021,46.896 30.334,49.113 C27.647,51.331 26.319,54.444 26.319,58.454 C26.319,62.19 27.381,64.936 29.513,66.803 C31.554,68.757 34.331,69.731 37.833,69.731 L37.833,64.67 Z M106.926,75.978 C104.796,75.978 103.379,75.623 102.405,74.826 C101.343,74.118 100.458,72.673 99.661,70.725 L80.883,11.874 C80.086,9.837 79.643,8.598 79.643,8.066 C79.643,6.548 80.529,5.752 82.303,5.752 L89.071,5.752 C91.289,5.752 92.795,6.107 93.681,6.904 C94.655,7.612 95.452,9.04 96.249,11.077 L109.475,61.38 L121.817,11.077 C122.526,8.951 123.323,7.612 124.297,6.904 C125.271,6.195 126.865,5.752 128.906,5.752 L134.54,5.752 C136.67,5.752 138.175,6.107 139.149,6.904 C140.123,7.612 140.92,9.04 141.54,11.077 L154.059,62.013 L167.729,11.077 C168.526,8.951 169.412,7.612 170.297,6.904 C171.271,6.195 172.777,5.752 174.907,5.752 L181.231,5.752 C183.005,5.752 183.979,6.46 183.979,7.978 C183.979,8.509 183.891,9.04 183.714,9.659 C183.536,10.368 183.271,11.254 182.917,12.405 L163.695,70.725 C162.898,72.761 162.013,74.118 161.039,74.826 C159.977,75.534 158.56,75.978 156.695,75.978 L150.618,75.978 C148.488,75.978 146.983,75.623 146.009,74.826 C145.035,74.118 144.238,72.673 143.618,70.725 L131.453,21.635 L119.288,70.636 C118.668,72.673 117.871,74.118 116.897,74.826 C115.923,75.534 114.329,75.978 112.287,75.978 L106.926,75.978 Z M214.293,77.752 C210.366,77.752 206.35,77.31 202.334,76.424 C198.318,75.534 195.098,74.472 192.854,73.292 C191.613,72.673 190.727,71.965 190.373,71.345 C190.019,70.725 189.842,70.017 189.842,69.376 L189.842,65.379 C189.842,63.075 190.727,61.912 192.411,61.912 C193.031,61.912 193.651,62.013 194.271,62.278 C194.891,62.544 195.776,62.981 196.838,63.424 C199.525,64.67 202.422,65.644 205.464,66.272 C208.595,66.891 211.637,67.244 214.767,67.244 C219.737,67.244 223.576,66.449 226.263,64.847 C228.95,63.246 230.338,60.943 230.338,57.924 C230.338,55.972 229.718,54.267 228.42,52.931 C227.122,51.596 224.7,50.379 221.216,49.29 L208.772,45.832 C202.422,43.971 197.787,41.261 194.98,37.685 C192.146,34.2 190.727,30.364 190.727,26.35 C190.727,23.043 191.436,20.136 192.854,17.557 C194.271,14.979 196.129,12.759 198.436,10.987 C200.742,9.128 203.43,7.7 206.561,6.814 C209.691,5.84 213.002,5.398 216.512,5.398 C218.287,5.398 220.151,5.486 221.925,5.752 C223.788,6.018 225.474,6.372 227.16,6.726 C228.774,7.081 230.338,7.524 231.843,7.967 C233.349,8.421 234.5,8.863 235.297,9.305 C236.448,9.925 237.245,10.545 237.776,11.254 C238.22,11.962 238.485,12.936 238.485,14.183 L238.485,17.823 C238.485,20.136 237.599,21.281 235.916,21.281 C235.119,21.281 233.88,20.926 232.197,20.224 C227.583,18.357 222.544,17.379 217.044,17.379 C212.523,17.379 208.949,18.002 206.438,19.332 C203.872,20.663 202.599,22.789 202.599,25.819 C202.599,27.774 203.253,29.464 204.639,30.8 C206.025,32.136 208.772,33.441 212.789,34.642 L224.877,38.1 C231.136,39.961 235.651,42.537 238.308,45.832 C240.879,49.113 242.21,52.842 242.21,56.945 C242.21,60.323 241.501,63.424 239.991,66.095 C238.485,68.757 236.536,71.078 234.053,72.938 C231.579,74.826 228.686,76.247 225.379,77.221 C221.836,77.575 218.199,77.752 214.293,77.752 Z" fill="#252F3E"/>
        <path d="M230.338,112.582 C201.714,133.688 160.743,144.728 125.271,144.728 C75.658,144.728 31.023,127.654 -4.26325641e-14,97.968 C-2.13162821e-14,97.791 -2.13162821e-14,97.525 0.177,97.348 C0.354,97.171 0.619,97.171 0.796,97.348 C33.729,118.454 73.97,130.772 115.657,130.772 C144.281,130.772 175.97,124.27 205.464,111.077 C209.691,108.853 214.47,106.1 219.737,102.97 C220.268,102.704 220.888,103.058 220.534,103.589 L230.338,112.582 Z M241.944,99.575 C238.839,95.473 229.541,96.798 223.576,97.791 C222.602,97.968 222.425,97.171 223.311,96.71 C233.526,90.384 249.571,92.166 252.145,95.65 C254.718,99.221 251.436,115.321 241.944,122.621 C241.147,123.241 240.35,122.887 240.704,122.09 C242.742,117.745 245.051,103.677 241.944,99.575 Z" fill="#FF9900"/>
    </g>
</svg>
