<?xml version="1.0" encoding="UTF-8"?>
<svg width="256px" height="185px" viewBox="0 0 256 185" version="1.1" xmlns="http://www.w3.org/2000/svg">
    <title>Docker</title>
    <g>
        <path d="M250.715745,70.4971666 C244.951102,66.4973277 231.740464,64.997388 221.412146,66.9973071 C220.211179,56.9977093 214.68673,48.2480609 205.078012,40.4982517 L199.553563,36.4984128 L195.989866,42.7481423 C191.225701,51.2478603 189.024006,61.9974873 189.984792,72.4970858 C190.465334,75.9969653 191.906872,81.7467753 195.270539,86.4966243 C191.706841,88.7465338 184.941441,91.4964234 175.092677,91.4964234 L0.962337687,91.4964234 L0.481918844,92.7463827 C-1.23949921,98.7461522 -1.47977556,115.24545 11.5301,128.744865 C21.6180429,139.244412 36.7493731,144.744171 56.6455793,144.744171 C113.531746,144.744171 157.651387,113.495325 180.657187,61.7474971 C187.182545,61.9974873 200.153295,61.9974873 208.881471,48.4980512 C209.121747,48.2480609 209.842819,47.2481114 211.044099,45.2482019 L213.245794,41.9981725 L208.401053,38.7482833 C208.401053,38.7482833 208.401053,38.7482833 208.401053,38.7482833 C208.401053,38.7482833 208.401053,38.7482833 208.401053,38.7482833 C214.446454,36.2484226 219.970903,36.4984128 224.975543,38.2483028 C226.897611,38.9982726 229.099306,38.9982726 230.780902,38.4983028 C232.462185,37.9983331 233.90329,36.9983836 234.864389,35.7484243 L236.065356,34.2484748 L234.864389,32.7485253 C227.858517,22.7489275 214.927185,22.9989178 214.927185,22.9989178 C182.979373,7.74945922 157.891663,9.74936873 139.196107,18.7491789 C121.461303,3.74962029 95.6133639,-3.00015241 66.4930467,1.74973657 C30.0240835,7.49946897 1.68302104,35.4984341 0.241916246,68.7472459 C-0.478730386,68.7472459 -0.719006732,68.7472459 -0.719006732,68.7472459 C-19.6545065,68.9972361 -31.6435989,78.7468549 -37.1680479,87.7465836 C-44.8944693,100.24606 -44.4140271,112.495435 -42.4526066,119.495162 C-42.2123303,120.245132 -41.7318881,120.995102 -41.4916118,121.745072 C-41.4916118,121.745072 -41.4916118,121.745072 -41.4916118,121.745072 C-39.7707218,125.744911 -37.1680479,129.494759 -33.8440919,132.744648 C-6.72454544,158.993563 33.4254171,156.993654 56.8858556,154.993745 C89.6082505,152.243865 118.498891,143.744201 142.465442,130.494739 C172.890982,113.745315 198.979005,87.7465836 213.726213,57.4976791 C216.408575,57.4976791 219.090936,57.4976791 221.532854,57.2476888 C233.90329,56.2477393 242.870863,51.4978506 247.875503,44.2482525 C251.917865,38.4983028 253.840246,31.7485758 253.359827,24.9988471 C253.119551,20.7490277 252.158452,16.4992083 250.715745,70.4971666 C250.715745,70.4971666 250.715745,70.4971666 250.715745,70.4971666 L250.715745,70.4971666 Z" fill="#2396ED"/>
        <path d="M81.8407201,38.4983028 L81.8407201,38.4983028 L81.8407201,38.4983028 C81.8407201,40.7482124 80.1591139,42.4981423 78.2370461,42.4981423 L66.0126045,42.4981423 C64.0905367,42.4981423 62.4089305,40.7482124 62.4089305,38.4983028 L62.4089305,26.7487769 C62.4089305,24.4988674 64.0905367,22.7489275 66.0126045,22.7489275 L78.2370461,22.7489275 C80.1591139,22.7489275 81.8407201,24.4988674 81.8407201,26.7487769 L81.8407201,38.4983028 Z" fill="#2396ED"/>
        <path d="M101.016826,38.4983028 L101.016826,38.4983028 L101.016826,38.4983028 C101.016826,40.7482124 99.3352197,42.4981423 97.4131519,42.4981423 L85.1887103,42.4981423 C83.2666425,42.4981423 81.5850363,40.7482124 81.5850363,38.4983028 L81.5850363,26.7487769 C81.5850363,24.4988674 83.2666425,22.7489275 85.1887103,22.7489275 L97.4131519,22.7489275 C99.3352197,22.7489275 101.016826,24.4988674 101.016826,26.7487769 L101.016826,38.4983028 Z" fill="#2396ED"/>
        <path d="M120.192932,38.4983028 L120.192932,38.4983028 L120.192932,38.4983028 C120.192932,40.7482124 118.511326,42.4981423 116.589258,42.4981423 L104.364816,42.4981423 C102.442749,42.4981423 100.761142,40.7482124 100.761142,38.4983028 L100.761142,26.7487769 C100.761142,24.4988674 102.442749,22.7489275 104.364816,22.7489275 L116.589258,22.7489275 C118.511326,22.7489275 120.192932,24.4988674 120.192932,26.7487769 L120.192932,38.4983028 Z" fill="#2396ED"/>
        <path d="M139.369038,38.4983028 L139.369038,38.4983028 L139.369038,38.4983028 C139.369038,40.7482124 137.687432,42.4981423 135.765364,42.4981423 L123.540923,42.4981423 C121.618855,42.4981423 119.937249,40.7482124 119.937249,38.4983028 L119.937249,26.7487769 C119.937249,24.4988674 121.618855,22.7489275 123.540923,22.7489275 L135.765364,22.7489275 C137.687432,22.7489275 139.369038,24.4988674 139.369038,26.7487769 L139.369038,38.4983028 Z" fill="#2396ED"/>
        <path d="M81.8407201,57.4976791 L81.8407201,57.4976791 L81.8407201,57.4976791 C81.8407201,59.7475886 80.1591139,61.4975185 78.2370461,61.4975185 L66.0126045,61.4975185 C64.0905367,61.4975185 62.4089305,59.7475886 62.4089305,57.4976791 L62.4089305,45.7481531 C62.4089305,43.4982436 64.0905367,41.7483037 66.0126045,41.7483037 L78.2370461,41.7483037 C80.1591139,41.7483037 81.8407201,43.4982436 81.8407201,45.7481531 L81.8407201,57.4976791 Z" fill="#2396ED"/>
        <path d="M101.016826,57.4976791 L101.016826,57.4976791 L101.016826,57.4976791 C101.016826,59.7475886 99.3352197,61.4975185 97.4131519,61.4975185 L85.1887103,61.4975185 C83.2666425,61.4975185 81.5850363,59.7475886 81.5850363,57.4976791 L81.5850363,45.7481531 C81.5850363,43.4982436 83.2666425,41.7483037 85.1887103,41.7483037 L97.4131519,41.7483037 C99.3352197,41.7483037 101.016826,43.4982436 101.016826,45.7481531 L101.016826,57.4976791 Z" fill="#2396ED"/>
        <path d="M120.192932,57.4976791 L120.192932,57.4976791 L120.192932,57.4976791 C120.192932,59.7475886 118.511326,61.4975185 116.589258,61.4975185 L104.364816,61.4975185 C102.442749,61.4975185 100.761142,59.7475886 100.761142,57.4976791 L100.761142,45.7481531 C100.761142,43.4982436 102.442749,41.7483037 104.364816,41.7483037 L116.589258,41.7483037 C118.511326,41.7483037 120.192932,43.4982436 120.192932,45.7481531 L120.192932,57.4976791 Z" fill="#2396ED"/>
        <path d="M139.369038,57.4976791 L139.369038,57.4976791 L139.369038,57.4976791 C139.369038,59.7475886 137.687432,61.4975185 135.765364,61.4975185 L123.540923,61.4975185 C121.618855,61.4975185 119.937249,59.7475886 119.937249,57.4976791 L119.937249,45.7481531 C119.937249,43.4982436 121.618855,41.7483037 123.540923,41.7483037 L135.765364,41.7483037 C137.687432,41.7483037 139.369038,43.4982436 139.369038,45.7481531 L139.369038,57.4976791 Z" fill="#2396ED"/>
        <path d="M158.545144,57.4976791 L158.545144,57.4976791 L158.545144,57.4976791 C158.545144,59.7475886 156.863538,61.4975185 154.94147,61.4975185 L142.717029,61.4975185 C140.794961,61.4975185 139.113355,59.7475886 139.113355,57.4976791 L139.113355,45.7481531 C139.113355,43.4982436 140.794961,41.7483037 142.717029,41.7483037 L154.94147,41.7483037 C156.863538,41.7483037 158.545144,43.4982436 158.545144,45.7481531 L158.545144,57.4976791 Z" fill="#2396ED"/>
        <path d="M101.016826,76.4969148 L101.016826,76.4969148 L101.016826,76.4969148 C101.016826,78.7468243 99.3352197,80.4967542 97.4131519,80.4967542 L85.1887103,80.4967542 C83.2666425,80.4967542 81.5850363,78.7468243 81.5850363,76.4969148 L81.5850363,64.7473888 C81.5850363,62.4974793 83.2666425,60.7475394 85.1887103,60.7475394 L97.4131519,60.7475394 C99.3352197,60.7475394 101.016826,62.4974793 101.016826,64.7473888 L101.016826,76.4969148 Z" fill="#2396ED"/>
        <path d="M120.192932,76.4969148 L120.192932,76.4969148 L120.192932,76.4969148 C120.192932,78.7468243 118.511326,80.4967542 116.589258,80.4967542 L104.364816,80.4967542 C102.442749,80.4967542 100.761142,78.7468243 100.761142,76.4969148 L100.761142,64.7473888 C100.761142,62.4974793 102.442749,60.7475394 104.364816,60.7475394 L116.589258,60.7475394 C118.511326,60.7475394 120.192932,62.4974793 120.192932,64.7473888 L120.192932,76.4969148 Z" fill="#2396ED"/>
        <path d="M139.369038,76.4969148 L139.369038,76.4969148 L139.369038,76.4969148 C139.369038,78.7468243 137.687432,80.4967542 135.765364,80.4967542 L123.540923,80.4967542 C121.618855,80.4967542 119.937249,78.7468243 119.937249,76.4969148 L119.937249,64.7473888 C119.937249,62.4974793 121.618855,60.7475394 123.540923,60.7475394 L135.765364,60.7475394 C137.687432,60.7475394 139.369038,62.4974793 139.369038,64.7473888 L139.369038,76.4969148 Z" fill="#2396ED"/>
        <path d="M158.545144,76.4969148 L158.545144,76.4969148 L158.545144,76.4969148 C158.545144,78.7468243 156.863538,80.4967542 154.94147,80.4967542 L142.717029,80.4967542 C140.794961,80.4967542 139.113355,78.7468243 139.113355,76.4969148 L139.113355,64.7473888 C139.113355,62.4974793 140.794961,60.7475394 142.717029,60.7475394 L154.94147,60.7475394 C156.863538,60.7475394 158.545144,62.4974793 158.545144,64.7473888 L158.545144,76.4969148 Z" fill="#2396ED"/>
    </g>
</svg>
