<?xml version="1.0" encoding="UTF-8"?>
<svg width="256px" height="346px" viewBox="0 0 256 346" version="1.1" xmlns="http://www.w3.org/2000/svg">
    <title>Java</title>
    <defs>
        <linearGradient x1="89.234%" y1="15.767%" x2="10.766%" y2="84.233%" id="java-gradient">
            <stop stop-color="#FB8817" offset="0%"/>
            <stop stop-color="#E02D2D" offset="100%"/>
        </linearGradient>
    </defs>
    <g>
        <path d="M82.5539491,267.472524 C82.5539491,267.472524 69.35552,275.147869 91.9468218,277.745105 C119.315549,280.867375 133.303389,280.419607 163.463913,274.711273 C163.463913,274.711273 171.393396,279.683258 182.467491,283.989644 C114.855564,312.966982 29.4483782,282.311215 82.5539491,267.472524" fill="#5382A1"/>
        <path d="M74.2921309,229.658996 C74.2921309,229.658996 59.4888145,240.616727 82.0968727,242.955171 C111.333004,245.971316 134.421411,246.218007 174.373236,238.524975 C174.373236,238.524975 179.899113,244.127185 188.588218,247.190807 C106.841367,271.094691 15.79008,249.075898 74.2921309,229.658996" fill="#5382A1"/>
        <path d="M143.941818,165.514705 C160.601367,184.695156 139.564684,201.955142 139.564684,201.955142 C139.564684,201.955142 181.866124,180.117876 162.438982,152.772422 C144.294633,127.271098 130.380335,114.600495 205.706705,70.9138618 C205.706705,70.9138618 87.4691491,100.44416 143.941818,165.514705" fill="#E76F00"/>
        <path d="M233.364015,295.441687 C233.364015,295.441687 243.131113,303.489396 222.60736,309.715316 C183.580858,321.537862 60.1748945,325.107898 25.8932364,310.186356 C13.5698618,304.825251 36.67968,297.641740 43.9491491,296.921245 C51.5304727,296.155700 55.8629236,296.318724 55.8629236,296.318724 C41.7153455,286.569676 -20.6617898,311.137742 16.8103564,318.456698 C125.469867,343.671986 215.809964,310.779955 233.364015,295.441687" fill="#5382A1"/>
        <path d="M88.9008873,190.479825 C88.9008873,190.479825 26.1287564,210.389265 66.6717091,215.587193 C85.7744218,217.982112 122.858109,217.424689 157.590454,214.646902 C186.156158,212.311465 215.001722,206.811175 215.001722,206.811175 C215.001722,206.811175 206.902113,210.195774 200.853382,214.062313 C139.061544,234.322682 0,226.849665 31.0348545,206.071447 C54.8169491,190.391644 88.9008873,190.479825 88.9008873,190.479825" fill="#5382A1"/>
        <path d="M201.506444,253.422313 C266.305164,219.7504 236.344785,187.392 215.432844,191.751447 C210.307258,192.818269 208.021876,193.742662 208.021876,193.742662 C208.021876,193.742662 209.924655,190.761891 213.558924,189.471651 C254.929455,174.927394 286.746065,232.368927 200.204102,255.062401 C200.204102,255.062401 201.206691,254.223153 201.506444,253.422313" fill="#5382A1"/>
        <path d="M162.438982,0 C162.438982,0 198.325527,36.5242671 128.402153,92.2322326 C73.1981527,135.878518 115.614525,161.360369 128.37888,189.958178 C95.6490473,160.274003 70.9029309,134.131075 87.7736949,108.629875 C111.195451,72.3307873 176.017640,55.6839648 162.438982,0" fill="#E76F00"/>
        <path d="M95.2683055,344.665367 C157.466996,348.646865 252.980131,342.45632 255.24224,313.025629 C255.24224,313.025629 250.893964,324.182575 203.838371,333.042967 C150.750487,343.033484 85.2740655,341.867055 46.4393309,335.464262 C46.4402618,335.463331 54.3892945,342.043927 95.2683055,344.665367" fill="#5382A1"/>
    </g>
</svg>
