<?xml version="1.0" encoding="UTF-8"?>
<svg width="256px" height="249px" viewBox="0 0 256 249" version="1.1" xmlns="http://www.w3.org/2000/svg">
    <title>Kubernetes</title>
    <g>
        <path d="M82.0851613,244.934643 C76.1393548,244.934643 70.193548,243.802036 64.5080645,241.53682 L64.5080645,241.53682 L8.96774194,218.912036 C3.39919355,216.760713 0,211.371428 0,205.527857 C0,203.376535 0.56516129,-0.0372321429 0.56516129,-0.0372321429 L83.7806452,37.4524821 L83.7806452,37.4524821 L83.7806452,244.934643 L82.0851613,244.934643 Z" fill="#326DE6"/>
        <path d="M168.96,241.53682 C163.274516,243.802036 157.328709,244.934643 151.382903,244.934643 L151.382903,244.934643 L149.687419,244.934643 L149.687419,37.4524821 L232.903097,-0.0372321429 C232.903097,-0.0372321429 233.468258,203.376535 233.468258,205.527857 C233.468258,211.371428 230.069064,216.760713 224.500516,218.912036 L224.500516,218.912036 Z" fill="#326DE6"/>
        <path d="M83.7806452,37.4524821 L149.687419,37.4524821 L149.687419,244.934643 L83.7806452,244.934643 Z" fill="#326DE6"/>
        <path d="M228.464516,5.42666071 L149.687419,37.4524821 L83.7806452,37.4524821 L5.00354839,5.42666071 C3.39919355,4.86630357 2.36032258,3.28523214 2.36032258,1.59005357 C2.36032258,-0.105125 3.39919355,-1.68619643 5.00354839,-2.24655357 L76.8154839,-31.5570536 C80.7858065,-33.0381964 85.0412903,-33.0381964 89.0116129,-31.5570536 L160.823871,-2.24655357 C162.428226,-1.68619643 163.467097,-0.105125 163.467097,1.59005357 C163.467097,3.28523214 162.428226,4.86630357 160.823871,5.42666071 L160.823871,5.42666071 L89.0116129,34.7371607 C87.2051613,35.5207143 85.2877419,35.9127679 83.4812903,35.9127679 C81.6748387,35.9127679 79.7574194,35.5207143 77.9509677,34.7371607 L77.9509677,34.7371607 L24.1651613,13.9324107 L83.7806452,37.4524821 L149.687419,37.4524821 L209.302903,13.9324107 L155.517097,34.7371607 C153.710645,35.5207143 151.793226,35.9127679 149.986774,35.9127679 C148.180323,35.9127679 146.262903,35.5207143 144.456452,34.7371607 L144.456452,34.7371607 Z" fill="#326DE6"/>
        <path d="M156.951484,189.387857 L156.951484,189.387857 C156.951484,191.539178 155.347129,193.236964 153.177806,193.236964 L79.7574194,193.236964 C77.5881935,193.236964 75.9838387,191.539178 75.9838387,189.387857 L75.9838387,189.387857 C75.9838387,187.236535 77.5881935,185.53875 79.7574194,185.53875 L153.177806,185.53875 C155.347129,185.53875 156.951484,187.236535 156.951484,189.387857" fill="#FFFFFF"/>
        <path d="M156.951484,165.630536 L156.951484,165.630536 C156.951484,167.781857 155.347129,169.479643 153.177806,169.479643 L79.7574194,169.479643 C77.5881935,169.479643 75.9838387,167.781857 75.9838387,165.630536 L75.9838387,165.630536 C75.9838387,163.479214 77.5881935,161.781428 79.7574194,161.781428 L153.177806,161.781428 C155.347129,161.781428 156.951484,163.479214 156.951484,165.630536" fill="#FFFFFF"/>
        <path d="M156.951484,141.873214 L156.951484,141.873214 C156.951484,144.024536 155.347129,145.722321 153.177806,145.722321 L79.7574194,145.722321 C77.5881935,145.722321 75.9838387,144.024536 75.9838387,141.873214 L75.9838387,141.873214 C75.9838387,139.721893 77.5881935,138.024107 79.7574194,138.024107 L153.177806,138.024107 C155.347129,138.024107 156.951484,139.721893 156.951484,141.873214" fill="#FFFFFF"/>
        <path d="M156.951484,118.115893 L156.951484,118.115893 C156.951484,120.267214 155.347129,121.965 153.177806,121.965 L79.7574194,121.965 C77.5881935,121.965 75.9838387,120.267214 75.9838387,118.115893 L75.9838387,118.115893 C75.9838387,115.964571 77.5881935,114.266786 79.7574194,114.266786 L153.177806,114.266786 C155.347129,114.266786 156.951484,115.964571 156.951484,118.115893" fill="#FFFFFF"/>
        <path d="M156.951484,94.3585714 L156.951484,94.3585714 C156.951484,96.5098929 155.347129,98.2076786 153.177806,98.2076786 L79.7574194,98.2076786 C77.5881935,98.2076786 75.9838387,96.5098929 75.9838387,94.3585714 L75.9838387,94.3585714 C75.9838387,92.2072499 77.5881935,90.5094643 79.7574194,90.5094643 L153.177806,90.5094643 C155.347129,90.5094643 156.951484,92.2072499 156.951484,94.3585714" fill="#FFFFFF"/>
        <path d="M156.951484,70.6012499 L156.951484,70.6012499 C156.951484,72.7525714 155.347129,74.4503571 153.177806,74.4503571 L79.7574194,74.4503571 C77.5881935,74.4503571 75.9838387,72.7525714 75.9838387,70.6012499 L75.9838387,70.6012499 C75.9838387,68.4499285 77.5881935,66.7521428 79.7574194,66.7521428 L153.177806,66.7521428 C155.347129,66.7521428 156.951484,68.4499285 156.951484,70.6012499" fill="#FFFFFF"/>
    </g>
</svg>
