<?xml version="1.0" encoding="UTF-8"?>
<svg width="256px" height="256px" viewBox="0 0 256 256" version="1.1" xmlns="http://www.w3.org/2000/svg">
    <title>Next.js</title>
    <g>
        <path d="M119.616813,0.0688905149 C119.066276,0.118932037 117.314565,0.294077364 115.738025,0.419181169 C79.3775171,3.69690087 45.3192571,23.3131775 23.7481916,53.4631946 C11.7364614,70.2271045 4.05395894,89.2428829 1.15112414,109.384595 C0.12512219,116.415429 0,118.492153 0,128.025062 C0,137.557972 0.12512219,139.634696 1.15112414,146.665529 C8.10791789,194.730411 42.3163245,235.11392 88.7116325,250.076335 C97.0197458,252.753556 105.778299,254.580072 115.738025,255.680985 C119.616813,256.106338 136.383187,256.106338 140.261975,255.680985 C157.453763,253.779407 172.017986,249.525878 186.382014,242.194795 C188.584164,241.068861 189.00958,240.768612 188.709286,240.518404 C188.509091,240.36828 179.124927,227.782837 167.86393,212.570214 L147.393939,184.922273 L121.743891,146.965779 C107.630108,126.098464 96.0187683,109.034305 95.9186706,109.034305 C95.8185728,109.009263 95.7184751,125.873277 95.6684262,146.465363 C95.5933529,182.52028 95.5683284,183.971484 95.1178886,184.82219 C94.4672532,186.048207 93.9667644,186.548623 92.915738,187.099079 C92.114956,187.499411 91.4142717,187.574474 87.6355816,187.574474 L83.3063539,187.574474 L82.1552297,186.848872 C81.4044966,186.373477 80.8539589,185.747958 80.4785924,185.022356 L79.9530792,183.896422 L80.0031281,133.729796 L80.0782014,83.5381493 L80.8539589,82.5623397 C81.25435,82.0369037 82.1051808,81.3613431 82.7057674,81.0360732 C83.7317693,80.535658 84.1321603,80.4856165 88.4613879,80.4856165 C93.5663734,80.4856165 94.4172043,80.6857826 95.7434995,82.1369867 L96.6193802,83.1628383 L96.6944535,108.30856 L96.7695268,133.454337 L118.792471,101.001812 C130.653777,83.4380662 141.09064,68.3234393 141.465612,68.0981911 C142.440575,67.4476512 143.165731,67.2224031 144.416878,67.2224031 C146.418731,67.2224031 147.819636,67.9730267 148.745075,69.4242308 C149.19552,70.1747914 149.245569,71.3007674 149.245569,97.5 C149.245569,131.7789 149.270593,131.628777 146.918844,132.929873 C145.917881,133.530371 145.417392,133.580413 141.06561,133.605455 L136.283138,133.605455 L135.507933,134.105871 C134.857722,134.506203 134.13257,135.181722 133.832172,135.682138 L133.306708,136.557886 L133.306708,186.848872 C133.306708,234.514887 133.281683,237.217066 132.981389,238.017731 C132.080925,239.819267 130.378767,240.919924 128.427062,241.195341 C127.501623,241.320445 120.39202,241.270403 119.616813,241.145299 C99.0471972,239.068575 79.7027574,231.08712 63.4617705,217.550839 C61.7345641,216.099635 61.359081,215.699303 61.459178,215.348933 C61.5092269,215.123746 66.7891337,207.642067 73.1196864,198.609186 C79.4252147,189.576305 84.7327469,182.09471 84.8328446,181.86944 C84.9329424,181.644253 84.7827958,181.318841 84.1321603,180.518176 C83.7317693,179.992781 82.1051808,177.315559 80.4785924,174.563338 C78.8520041,171.811116 77.4511989,169.409274 77.4511989,169.384232 C77.4511989,169.334191 79.9530792,169.25913 83.0059862,169.25913 L88.5614857,169.25913 L89.4373663,170.509188 C89.9378551,171.184707 91.489583,173.836886 92.9654636,176.414023 L95.6684262,181.168922 L115.037791,151.919933 C125.645441,136.057471 134.507968,122.545686 134.633041,122.420582 C134.833235,122.195395 135.057954,122.270456 135.858735,122.745852 C136.383187,123.071263 140.837439,129.87685 146.068429,137.858305 L155.427343,152.245345 L154.126147,154.322069 C153.400995,155.472961 150.997783,159.05092 148.795633,162.278577 L144.817294,168.183672 L133.957078,187.874724 C113.837422,223.35577 104.102045,239.068575 103.852287,239.143636 C103.577505,239.243719 102.27631,238.843387 100.699769,238.21787 C84.1321603,231.837764 69.2679355,220.377733 58.1572094,205.665402 C47.7714288,191.828425 40.7893772,175.764397 37.7360497,158.525551 C36.4348543,151.244414 36.0094608,147.566225 36.0094608,128.025062 C36.0094608,108.4839 36.4348543,104.805711 37.7360497,97.5245742 C43.4669771,63.4711541 64.4877724,34.4727729 94.7675698,17.6337527 C111.384989,8.30043454 129.928772,3.09640398 150.273095,1.86944478 C153.625979,1.64425807 162.834639,1.86944478 166.037228,2.24481537 C187.306977,4.84695231 205.349033,12.1782698 221.590019,24.9635523 C231.072552,32.1697476 240.630586,42.4530454 247.837606,53.1629456 C255.195002,64.0716731 260.674635,75.7818513 264.528422,88.8675878 C267.782055,99.8764563 269.533766,110.535115 270.033767,122.745852 C270.25901,128.650581 270.033767,139.409509 269.583322,144.913821 C266.33019,177.465683 252.266961,206.66621 229.397391,227.807879 C222.665423,234.089807 214.807609,239.819267 206.699649,244.696997 C196.316716,250.951961 184.830449,255.53084 173.068949,258.007935 C157.478787,261.335633 141.06561,261.985962 125.819659,259.533888 L125.819659,259.533888 Z M172.017986,114.914575 C172.017986,114.839513 169.539106,110.910485 166.537229,106.256081 C163.535351,101.601677 161.056471,97.6976077 161.056471,97.6725869 C161.056471,97.6475661 163.981822,97.5975245 167.563809,97.5725037 L174.09608,97.5474829 L181.927392,106.88156 C186.156807,111.961225 189.833817,116.315766 189.833817,116.465891 C189.833817,116.66612 182.527627,116.716162 176.796699,116.590999 L172.017986,116.465891 L172.017986,114.914575 Z" fill="#000000"/>
    </g>
</svg>
