<?xml version="1.0" encoding="UTF-8"?>
<svg width="256px" height="255px" viewBox="0 0 256 255" version="1.1" xmlns="http://www.w3.org/2000/svg">
    <title>Python</title>
    <defs>
        <linearGradient x1="12.959%" y1="12.039%" x2="79.639%" y2="78.201%" id="python-gradient">
            <stop stop-color="#387EB8" offset="0%"/>
            <stop stop-color="#366994" offset="100%"/>
        </linearGradient>
        <linearGradient x1="19.128%" y1="20.579%" x2="90.742%" y2="88.429%" id="python-gradient-2">
            <stop stop-color="#FFE052" offset="0%"/>
            <stop stop-color="#FFC331" offset="100%"/>
        </linearGradient>
    </defs>
    <g>
        <path d="M126.916,0 C62.038,0 66.23,28.153 66.23,28.153 L66.323,57.368 L127.831,57.368 L127.831,66.032 L41.651,66.032 C41.651,66.032 0,61.164 0,126.918 C0,192.672 36.335,190.321 36.335,190.321 L57.865,190.321 L57.865,160.715 C57.865,160.715 56.921,124.476 93.773,124.476 L154.809,124.476 C154.809,124.476 189.961,124.942 189.961,90.497 L189.961,33.893 C189.961,33.893 195.641,0 126.916,0" fill="url(#python-gradient)"/>
        <path d="M128.757,254.126 C193.635,254.126 189.443,225.973 189.443,225.973 L189.35,196.758 L127.842,196.758 L127.842,188.094 L214.022,188.094 C214.022,188.094 255.673,192.962 255.673,127.208 C255.673,61.454 219.338,63.805 219.338,63.805 L197.808,63.805 L197.808,93.411 C197.808,93.411 198.752,129.65 161.9,129.65 L100.864,129.65 C100.864,129.65 65.712,129.184 65.712,163.629 L65.712,220.233 C65.712,220.233 60.032,254.126 128.757,254.126" fill="url(#python-gradient-2)"/>
    </g>
</svg>
