<?xml version="1.0" encoding="UTF-8"?>
<svg width="256px" height="228px" viewBox="0 0 256 228" version="1.1" xmlns="http://www.w3.org/2000/svg">
    <title>React</title>
    <g>
        <path d="M210.483381,73.8236374 C207.827698,72.9095503 205.075867,72.0446761 202.24247,71.2267368 C202.708172,69.3261098 203.135596,67.4500894 203.515631,65.6059664 C209.753843,35.3248922 205.675082,10.9302478 191.747328,2.89849283 C178.392359,-4.80289661 156.551327,3.22703567 134.492936,22.4237776 C132.371761,24.2697233 130.244662,26.2241201 128.118477,28.2723861 C126.701777,26.917204 125.287358,25.6075897 123.876584,24.3549348 C100.758745,3.82852863 77.5866802,-4.82157937 63.6725966,3.23341515 C50.3303869,10.9571328 46.3792156,33.8904224 51.9945178,62.5880206 C52.5367729,65.3599011 53.1706189,68.1905639 53.8873982,71.068617 C50.6078941,71.9995641 47.4418534,72.9920277 44.4125156,74.0478303 C17.3093297,83.497195 0,98.3066828 0,113.667995 C0,129.533287 18.5815786,145.446423 46.8116526,155.095373 C49.0394553,155.856809 51.3511025,156.576778 53.7333796,157.260293 C52.9600965,160.37302 52.2875179,163.423318 51.7229345,166.398431 C46.3687351,194.597975 50.5500231,216.989464 63.8566899,224.664425 C77.6012619,232.590464 100.66852,224.443422 123.130185,204.809231 C124.905501,203.257196 126.687196,201.611293 128.472081,199.886102 C130.785552,202.113904 133.095375,204.222319 135.392897,206.199955 C157.14963,224.922338 178.637969,232.482469 191.932332,224.786092 C205.663234,216.837268 210.125675,192.78347 204.332202,163.5181 C203.88974,161.283006 203.374826,158.99961 202.796573,156.675661 C204.416503,156.196743 206.006814,155.702335 207.557482,155.188332 C236.905331,145.46465 256,129.745175 256,113.667995 C256,98.2510906 238.132466,83.3418093 210.483381,73.8236374" fill="#00D8FF"/>
        <path d="M201.345395,142.016276 C199.916064,142.483265 198.46208,142.934373 196.988715,143.369112 C194.588964,134.184641 191.36508,124.345202 187.429582,114.162393 C191.176459,104.210763 194.24334,94.4879309 196.521338,85.3711098 C199.187127,86.1455376 201.755143,86.9780454 204.202642,87.8717694 C227.88079,95.9339564 242.240439,107.840674 242.240439,113.667995 C242.240439,119.918918 226.67837,132.792335 201.345395,142.016276 L201.345395,142.016276 Z M190.268357,161.135477 C192.707968,172.46876 193.764346,182.815777 192.526792,190.420842 C191.41363,197.181893 188.921729,201.712168 185.837137,203.179129 C179.39295,206.306187 163.156828,200.276874 145.021684,184.816662 C142.88912,182.983458 140.751293,181.03045 138.617945,178.965457 C145.592386,171.447153 152.557036,162.804465 159.312849,153.270006 C169.700454,152.249184 179.44171,150.657713 188.206554,148.541871 C188.723115,150.639826 189.191343,152.702551 189.603954,154.721673 C189.920192,156.367082 190.113131,158.813552 190.268357,161.135477 L190.268357,161.135477 Z M65.5113228,203.037095 C59.1823659,205.082656 54.3824154,205.101269 51.2960188,203.621598 C44.8563563,200.482614 42.4006053,183.648452 46.9011906,160.874359 C47.4179213,158.107729 48.0251173,155.274833 48.7169071,152.391111 C57.3535399,154.397696 66.9645262,155.899391 77.2491835,156.847556 C84.0558944,166.160372 91.1293178,174.720832 98.2078297,182.194019 C96.4860445,183.876536 94.7586841,185.491913 93.0298071,187.032814 C83.0897725,195.872835 73.3504349,200.704579 65.5113228,203.037095 L65.5113228,203.037095 Z M13.7594652,113.667995 C13.7594652,107.388269 27.2137399,95.7788795 49.9699363,87.8619881 C52.5743112,86.9211674 55.3138543,86.0314585 58.1658008,85.1904771 C60.4675677,94.4436444 63.5528766,104.218068 67.3401872,114.201638 C63.5017267,124.327767 60.3622144,134.243095 58.0432337,143.587175 C55.4463774,142.926361 52.9358834,142.227931 50.5089047,141.491803 C27.2137399,133.496025 13.7594652,121.830322 13.7594652,113.667995 L13.7594652,113.667995 Z M65.8446626,24.4140178 C72.2908145,21.2683386 88.5064846,27.5968091 107.575983,44.0864631 C108.843892,45.1841732 110.116571,46.3298251 111.39201,47.5170482 C104.366368,54.9033944 97.3789213,63.2912624 90.6289736,72.4882797 C80.6786631,73.5346013 71.0595154,75.0860879 62.0913169,77.1284648 C61.4344748,74.4694801 60.8417364,71.8439096 60.3168067,69.2659121 C55.4645445,43.2157591 59.1823659,27.6460686 65.8446626,24.4140178 L65.8446626,24.4140178 Z M184.162674,87.2053656 C182.643062,83.3918199 181.014889,79.5988579 179.28924,75.8399859 C188.069268,77.7423394 196.231309,80.1090868 203.48881,82.8766021 C200.495247,94.0991774 195.767266,106.449732 189.621081,119.278962 C187.939574,115.721675 186.165599,112.152538 184.301052,108.57926 C184.261738,108.494298 184.222424,108.409336 184.162674,87.2053656 L184.162674,87.2053656 Z M128.436304,52.0800173 C134.115566,58.2635634 139.794828,65.3876037 145.364876,73.2084098 C139.735077,73.0174832 134.025814,72.9149772 128.316551,72.9149772 C122.627289,72.9149772 116.938026,73.0174832 111.328227,73.2084098 C116.898275,65.4388632 122.577537,58.3148229 128.436304,52.0800173 L128.436304,52.0800173 Z M71.8891529,119.318276 C65.8446626,106.550445 61.1953987,94.2388445 58.2214273,83.0551503 C65.4183735,80.3388945 73.4814835,78.0201378 82.1379387,76.1690438 C80.3919683,79.8766563 78.7460012,83.6355283 77.2193489,87.4456741 C75.6526416,91.3617198 74.1651991,95.2777656 72.7570164,99.1938113 C72.3700871,99.2450708 71.9831578,99.2963303 71.8891529,119.318276 L71.8891529,119.318276 Z M128.476304,175.256881 C122.677537,168.92243 116.878771,161.696931 111.229227,153.774724 C116.73773,153.927133 122.386742,154.008846 128.156304,154.008846 C133.985865,154.008846 139.735077,153.907421 145.404876,153.713299 C139.814828,161.798356 134.075566,169.064127 128.476304,175.256881 L128.476304,175.256881 Z M184.222424,140.017714 C185.827131,143.933511 187.332743,147.787744 188.739926,151.580103 C179.928488,153.584441 170.498298,155.134589 160.670034,156.190361 C167.301527,147.298397 173.634019,137.827322 179.528488,127.918452 C181.164889,131.983908 182.742674,136.028652 184.222424,140.017714 L184.222424,140.017714 Z M128.196551,189.951534 C79.1722903,189.951534 39.0615866,156.698707 39.0615866,113.667995 C39.0615866,70.6372821 79.1722903,37.3844653 128.196551,37.3844653 C177.220812,37.3844653 217.331516,70.6372821 217.331516,113.667995 C217.331516,156.698707 177.220812,189.951534 128.196551,189.951534 L128.196551,189.951534 Z" fill="#00D8FF"/>
    </g>
</svg>
