<?xml version="1.0" encoding="UTF-8"?>
<svg width="256px" height="256px" viewBox="0 0 256 256" version="1.1" xmlns="http://www.w3.org/2000/svg">
    <title>Spring</title>
    <g>
        <path d="M128,0 C57.28,0 0,57.28 0,128 C0,198.72 57.28,256 128,256 C198.72,256 256,198.72 256,128 C256,57.28 198.72,0 128,0" fill="#68BD45"/>
        <path d="M227.84,59.52 C219.52,47.36 192,31.36 162.56,51.84 C142.72,39.68 120.32,33.28 97.28,33.92 C61.44,35.2 28.8,57.6 14.72,90.88 C9.6,104.32 7.68,118.4 8.96,132.48 C10.24,149.12 16,164.48 25.6,177.92 C32,186.88 39.68,194.56 48,201.6 C57.6,209.28 68.48,215.04 80,219.52 C89.6,223.36 99.84,225.92 110.08,227.2 C115.84,227.84 121.6,228.48 127.36,228.48 C143.36,228.48 159.36,225.28 174.08,219.52 C186.88,214.4 198.72,207.36 209.28,198.72 C219.52,190.4 228.48,180.16 235.52,168.96 C245.76,152.96 251.52,134.4 252.8,115.2 C254.72,91.52 245.12,69.12 227.84,59.52 L227.84,59.52 Z M220.16,162.56 C217.6,167.68 214.4,172.16 210.56,176.64 C206.72,181.12 202.24,185.6 197.12,189.44 C193.28,192.64 188.8,195.84 184.32,198.4 C180.48,200.32 176.64,202.24 172.8,203.52 C169.6,204.8 166.4,205.44 163.2,206.72 C160,207.36 156.8,208 153.6,208.64 C150.4,209.28 147.2,209.28 144,209.92 C137.6,210.56 131.2,210.56 124.8,209.92 C121.6,209.92 118.4,209.28 115.2,208.64 C112,208 108.8,207.36 105.6,206.72 C102.4,205.44 99.2,204.8 96,203.52 C92.8,202.24 89.6,200.96 86.4,199.04 C81.92,196.48 77.44,193.92 73.6,190.72 C68.48,186.88 64,182.4 60.16,177.92 C56.32,173.44 52.48,168.32 49.92,163.2 C47.36,158.08 45.44,152.96 44.16,147.2 C42.88,142.72 42.24,137.6 41.6,132.48 C41.6,129.92 41.6,127.36 41.6,124.8 C41.6,119.68 42.24,114.56 43.52,109.44 C44.8,104.32 46.72,99.2 48.64,94.72 C50.56,90.24 53.12,85.76 56.32,81.92 C58.88,78.72 61.44,75.52 64.64,72.32 C67.84,69.12 71.68,66.56 75.52,64 C78.72,61.44 82.56,59.52 86.4,57.6 C89.6,56.32 92.8,55.04 96,54.4 C99.2,53.12 102.4,52.48 105.6,51.84 C108.8,51.2 112,50.56 115.2,50.56 C121.6,49.92 128,49.92 134.4,50.56 C137.6,50.56 140.8,51.2 144,51.84 C147.2,52.48 150.4,53.12 153.6,54.4 C156.8,55.04 160,56.32 163.2,57.6 C166.4,58.88 169.6,60.16 172.8,61.44 C177.28,64 181.76,66.56 185.6,69.76 C190.72,73.6 195.2,78.08 199.04,82.56 C202.88,87.04 206.72,92.16 209.28,97.28 C211.84,102.4 213.76,107.52 215.04,113.28 C216.32,117.76 216.96,122.88 217.6,128 C217.6,130.56 217.6,133.12 217.6,135.68 C217.6,140.8 216.96,145.92 215.68,151.04 C214.4,156.16 212.48,161.28 210.56,165.76 C210.56,164.48 220.16,162.56 220.16,162.56 L220.16,162.56 Z" fill="#FFFFFF"/>
    </g>
</svg>
