<?xml version="1.0" encoding="UTF-8"?>
<svg width="256px" height="256px" viewBox="0 0 256 256" version="1.1" xmlns="http://www.w3.org/2000/svg">
    <title>TypeScript</title>
    <g>
        <rect fill="#3178C6" x="0" y="0" width="256" height="256" rx="28"/>
        <path d="M56.6112,128.849 L56.6112,139.4978 L98.8934,139.4978 L98.8934,189.4978 L115.7778,189.4978 L115.7778,139.4978 L158.06,139.4978 L158.06,128.849 C158.06,123.4347 158.06,118.2848 157.9246,112.8705 C157.9246,112.7348 156.0351,112.7348 153.7441,112.7348 L61.0617,112.7348 C58.7707,112.7348 56.7466,112.7348 56.6112,112.8705 C56.6112,118.2848 56.6112,123.4347 56.6112,128.849 Z" fill="#FFFFFF" fill-rule="nonzero"/>
        <path d="M202.4859,125.2728 C201.6711,123.1055 200.4512,121.0737 198.9618,119.2419 C197.4724,117.4101 195.7134,115.8783 193.7546,114.6465 C191.7958,113.4147 189.6674,112.5829 187.4037,112.1511 C185.14,111.7193 182.7409,111.5034 180.2065,111.5034 C175.1371,111.5034 170.4734,112.4706 166.2152,114.4051 C161.957,116.3396 158.3097,119.1095 155.2734,122.715 C152.2371,126.3204 149.9117,130.6614 148.2974,135.738 C146.683,140.8146 145.8758,146.4604 145.8758,152.6753 C145.8758,159.0257 146.683,164.7533 148.2974,169.8582 C149.9117,174.9631 152.2371,179.3041 155.2734,182.9095 C158.3097,186.515 161.957,189.2849 166.2152,191.2194 C170.4734,193.1539 175.1371,194.1211 180.2065,194.1211 C183.2428,194.1211 186.1437,193.7711 188.9093,193.0711 C191.6749,192.3711 194.2093,191.3494 196.5124,190.0059 C198.8156,188.6624 200.8361,187.0189 202.5738,185.0755 C204.3115,183.132 205.6874,180.9503 206.7015,178.5303 L191.4015,172.5303 C190.7946,173.8738 190.0491,175.0873 189.1649,176.1709 C188.2808,177.2544 187.2667,178.1962 186.1226,178.9962 C184.9786,179.7962 183.7046,180.4144 182.3008,180.8509 C180.897,181.2873 179.3633,181.5056 177.6999,181.5056 C175.2667,181.5056 173.1383,181.0191 171.3148,180.0462 C169.4913,179.0732 167.9726,177.7585 166.7586,176.1021 C165.5446,174.4456 164.6354,172.5303 164.0311,170.3562 C163.4267,168.182 163.1246,165.8538 163.1246,163.3714 L207.9246,163.3714 L207.9246,157.3714 C207.9246,151.5638 207.3686,146.0797 206.2565,140.9191 C205.1445,135.7585 203.3007,130.9728 200.7663,126.562 C200.7663,126.562 202.4859,125.2728 202.4859,125.2728 Z M163.2599,152.7441 C163.3952,150.3985 163.8327,148.1529 164.5722,146.0074 C165.3118,143.8618 166.3533,141.9273 167.6968,140.2038 C169.0403,138.4803 170.6857,137.0678 172.6332,135.9662 C174.5806,134.8647 176.8299,134.3139 179.3812,134.3139 C181.9324,134.3139 184.1817,134.8647 186.1292,135.9662 C188.0766,137.0678 189.7221,138.4803 191.0656,140.2038 C192.4091,141.9273 193.4235,143.8618 194.1088,146.0074 C194.7941,148.1529 195.1853,150.3985 195.2824,152.7441 L163.2599,152.7441 Z" fill="#FFFFFF" fill-rule="nonzero"/>
    </g>
</svg>
